<svg width="1440" height="927" xmlns="http://www.w3.org/2000/svg"><defs><linearGradient x1="100%" y1="30.703%" x2="2.074%" y2="68.865%" id="a"><stop stop-color="#4E7DFF" offset="0%"/><stop stop-color="#3E60FF" offset="100%"/></linearGradient><linearGradient x1="100%" y1="25.221%" x2="16.128%" y2="67.186%" id="b"><stop stop-color="#3A73FD" offset="0%"/><stop stop-color="#53F" offset="100%"/></linearGradient><linearGradient x1="100%" y1="33.715%" x2="0%" y2="71.09%" id="c"><stop stop-color="#49D6FF" offset="0%"/><stop stop-color="#23ADFD" offset="100%"/></linearGradient><linearGradient x1="100%" y1="32.703%" x2="0%" y2="71.394%" id="d"><stop stop-color="#D2FFE7" offset="0%"/><stop stop-color="#A6FFCB" offset="100%"/></linearGradient><linearGradient x1="50%" y1="0%" x2="0%" y2="100%" id="e"><stop stop-color="#FFF09F" offset="0%"/><stop stop-color="#FFB175" offset="100%"/></linearGradient></defs><g transform="translate(-516 -1)" fill="none" fill-rule="evenodd"><path fill="#FBFCFF" d="M0 .997v905.755l2580-454.679V1.535z"/><path stroke="#F1F5FF" stroke-width="2" d="M567 292.994l-255 44.963v-72l255-44.963z"/><path fill="#F1F5FF" d="M661 204.994l-255 44.963v-72l255-44.963zM864 827.671v72L1106 857v-72l-242 42.671zm2 1.678l238-41.966v67.94l-238 41.964v-67.938zM1520 854.674l-247 43.553v-72l247-43.553z"/><path fill="#1FA2FF" d="M0 834.936v72l595-104.915v-72z"/><path fill="url(#a)" d="M850 757.058l-255 44.964v-72l255-44.964z"/><path fill="url(#b)" d="M764 843.223l-367 64.712v-72l367-64.712z"/><path fill="#12E7FC" d="M1619 621.217v72l961-169.45v-72z"/><path stroke="#F1F5FF" stroke-width="2" d="M2016 270l-255 44.963v-72L2016 198z"/><path fill="url(#c)" d="M1781 593l-255 44.963v-72L1781 521z"/><path fill="#F1F5FF" d="M1916 217l-255 44.963v-72L1916 145z"/><path fill="url(#d)" d="M1762 740.003l-242 42.671v-72l242-42.671z"/><path d="M1896 786.032l-242 42.671v72l242-42.67v-72zm-2 2.383v67.94l-238 41.964v-67.937l238-41.967z" fill="#F1F5FF"/><path fill="#10BDFF" d="M2071 757.518l-452 79.7v-72l452-79.7z"/><circle fill="url(#e)" cx="1338.5" cy="663.5" r="72.5"/><circle fill="url(#e)" cx="1803" cy="393" r="33"/><g><path fill="#FFF" d="M1877.294 496.215l9.745-14.164-15.158 2.853-9.744 14.164z"/><path fill="#ECF0FE" d="M1888.984 511.893l9.745-14.163-11.69-15.678-9.744 14.163z"/><path fill="#DDE4FF" d="M1862.136 499.068l11.691 15.678 15.158-2.852-11.69-15.68z"/></g><g><path fill="#DDE4FF" d="M1198.299 815.768l-14.164-9.745 2.853 15.158 14.164 9.745z"/><path fill="#F8F9FF" d="M1213.977 804.078l-14.163-9.745-15.678 11.69 14.163 9.745z"/><path fill="#ECF0FE" d="M1201.152 830.926l15.678-11.69-2.852-15.158-15.68 11.69z"/></g><g><path fill="#FFF" d="M1236.797 489.903L1253 495.65l-6.679-13.903-16.203-5.747z"/><path fill="#DDE4FF" d="M1224.679 505.253l16.203 5.747L1253 495.65l-16.203-5.746z"/><path fill="#ECF0FE" d="M1230.119 476L1218 491.35l6.678 13.903 12.119-15.35z"/></g><g><path fill="#DDE4FF" d="M1488.299 147.768l-14.164-9.745 2.853 15.158 14.164 9.745z"/><path fill="#FFF" d="M1503.977 136.078l-14.163-9.745-15.678 11.69 14.163 9.745z"/><path fill="#ECF0FE" d="M1491.152 162.926l15.678-11.69-2.852-15.158-15.68 11.69z"/></g><g><path fill="#DDE4FF" d="M1592.403 908.703l5.747-16.203-13.903 6.679-5.747 16.203z"/><path fill="#F8F9FF" d="M1607.753 920.821l5.747-16.203-15.35-12.118-5.746 16.203z"/><path fill="#ECF0FE" d="M1578.5 915.381l15.35 12.118 13.903-6.678-15.35-12.119z"/></g></g></svg>