<svg width="213" height="64" xmlns="http://www.w3.org/2000/svg"><g fill="none" fill-rule="evenodd"><g><rect fill="#000" width="213" height="64" rx="10"/><text font-family="Helvetica" font-size="15" letter-spacing="1.2" fill="#FFF"><tspan x="68.928" y="23">Coming soon on</tspan></text><text font-family="Helvetica" font-size="17" fill="#FFF"><tspan x="137" y="48">chrome</tspan></text><path d="M102.21 38.521c-2.868 0-5.236 2.11-5.236 5 0 2.868 2.343 5 5.235 5 2.892 0 5.236-2.109 5.236-5 0-2.89-2.344-5-5.236-5zm0 8.01c-1.572 0-2.943-1.256-2.943-3.033 0-1.801 1.371-3.034 2.942-3.034 1.57 0 2.942 1.233 2.942 3.034 0 1.8-1.371 3.033-2.942 3.033zm-11.42-8.01c-2.892 0-5.235 2.11-5.235 5 0 2.868 2.343 5 5.235 5 2.893 0 5.236-2.109 5.236-5 0-2.89-2.343-5-5.236-5zm0 8.01c-1.57 0-2.942-1.256-2.942-3.033 0-1.801 1.372-3.034 2.942-3.034 1.571 0 2.942 1.233 2.942 3.034 0 1.8-1.346 3.033-2.942 3.033zm-13.562-6.47v2.11h5.285c-.15 1.184-.573 2.061-1.197 2.654-.773.734-1.97 1.54-4.088 1.54-3.267 0-5.81-2.512-5.81-5.64 0-3.128 2.543-5.616 5.81-5.616 1.77 0 3.041.664 3.989 1.517l1.545-1.493C81.441 33.924 79.696 33 77.228 33 72.74 33 69 36.483 69 40.749c0 4.265 3.74 7.749 8.228 7.749 2.418 0 4.213-.759 5.659-2.18 1.471-1.399 1.92-3.365 1.92-4.953 0-.498-.05-.948-.125-1.327l-7.454.024zm55.523 1.636c-.424-1.114-1.77-3.176-4.463-3.176s-4.912 2.015-4.912 5c0 2.797 2.22 5 5.161 5a5.234 5.234 0 0 0 4.338-2.203l-1.77-1.138c-.598.83-1.396 1.375-2.568 1.375-1.172 0-1.994-.498-2.518-1.517L133 42.265l-.25-.568zm-7.106 1.658c-.05-1.919 1.57-2.914 2.718-2.914.922 0 1.67.426 1.944 1.066l-4.662 1.848zm-5.66 4.835h2.294V33.52h-2.293V48.19zm-3.764-8.555h-.075c-.523-.592-1.496-1.114-2.742-1.114-2.618 0-4.987 2.204-4.987 5 0 2.797 2.394 4.977 4.987 4.977 1.246 0 2.219-.522 2.742-1.138h.075v.711c0 1.92-1.072 2.938-2.792 2.938-1.397 0-2.27-.971-2.618-1.777l-1.995.806A4.966 4.966 0 0 0 113.43 53c2.692 0 4.96-1.517 4.96-5.19v-8.98h-2.168v.805zm-2.618 6.896c-1.57 0-2.892-1.256-2.892-3.01 0-1.753 1.321-3.033 2.892-3.033 1.546 0 2.792 1.28 2.792 3.033 0 1.754-1.246 3.01-2.792 3.01zM36 11c-11.55 0-21 9.45-21 21s9.45 21 21 21 21-9.45 21-21-9.45-21-21-21zm0 4.2c6.3 0 11.55 3.36 14.49 8.4H36c-3.99 0-7.56 2.94-8.19 6.72l-5.04-8.61c3.15-3.99 7.77-6.51 13.23-6.51zM42.3 32c0 3.57-2.73 6.3-6.3 6.3s-6.3-2.73-6.3-6.3 2.73-6.3 6.3-6.3 6.3 2.73 6.3 6.3zm-23.1 0c0-3.15.84-5.88 2.31-8.4l7.35 12.6c1.47 2.52 4.2 4.2 7.14 4.2 1.05 0 1.89-.21 2.73-.42l-5.04 8.61C25.5 47.54 19.2 40.4 19.2 32zM36 48.8l7.35-12.6c.63-1.26 1.26-2.73 1.26-4.2 0-2.52-1.05-4.83-2.94-6.3h10.08c.84 1.89 1.26 3.99 1.26 6.3-.21 9.24-7.77 16.8-17.01 16.8z" fill="#FFF" fill-rule="nonzero"/></g></g></svg>