<svg width="213" height="64" xmlns="http://www.w3.org/2000/svg"><g fill="none" fill-rule="evenodd"><rect fill="#000" width="213" height="64" rx="10"/><text font-family="Helvetica" font-size="15" letter-spacing="1.2" fill="#FFF"><tspan x="68" y="23">Coming soon on</tspan></text><path d="M80.886 42.476l-3.158-9.19-3.356 9.19h6.514zm-4.63-12.277h3.185L86.99 51h-3.087l-2.11-6.23h-8.227L71.313 51h-2.888l7.83-20.801zm19.356 19.088c1.19 0 2.179-.498 2.967-1.494.788-.996 1.182-2.485 1.182-4.468 0-1.208-.174-2.247-.524-3.115-.66-1.67-1.869-2.506-3.625-2.506-1.765 0-2.973.882-3.625 2.648-.349.944-.524 2.142-.524 3.596 0 1.17.175 2.167.524 2.988.661 1.567 1.87 2.35 3.625 2.35zm-6.598-13.382h2.478v2.011c.51-.69 1.066-1.222 1.67-1.6.86-.566 1.87-.85 3.03-.85 1.719 0 3.177.659 4.376 1.976 1.2 1.317 1.799 3.197 1.799 5.642 0 3.305-.864 5.665-2.592 7.08-1.095.897-2.37 1.346-3.823 1.346-1.142 0-2.1-.25-2.874-.75-.453-.284-.959-.77-1.516-1.46v7.746h-2.548v-21.14zm22.727 13.382c1.19 0 2.178-.498 2.966-1.494.789-.996 1.183-2.485 1.183-4.468 0-1.208-.175-2.247-.524-3.115-.661-1.67-1.87-2.506-3.625-2.506-1.766 0-2.974.882-3.625 2.648-.35.944-.524 2.142-.524 3.596 0 1.17.174 2.167.524 2.988.66 1.567 1.869 2.35 3.625 2.35zm-6.599-13.382h2.478v2.011c.51-.69 1.067-1.222 1.671-1.6.86-.566 1.87-.85 3.03-.85 1.718 0 3.177.659 4.376 1.976 1.199 1.317 1.798 3.197 1.798 5.642 0 3.305-.864 5.665-2.591 7.08-1.095.897-2.37 1.346-3.823 1.346-1.143 0-2.1-.25-2.875-.75-.453-.284-.958-.77-1.515-1.46v7.746h-2.549v-21.14zm26.565 8.383c.066 1.18.344 2.138.835 2.875.935 1.378 2.582 2.067 4.942 2.067 1.057 0 2.02-.151 2.889-.453 1.68-.585 2.52-1.633 2.52-3.144 0-1.133-.354-1.94-1.062-2.421-.717-.472-1.84-.883-3.37-1.232l-2.818-.637c-1.84-.416-3.143-.873-3.908-1.374-1.322-.868-1.983-2.166-1.983-3.894 0-1.869.647-3.403 1.94-4.602 1.294-1.199 3.125-1.798 5.495-1.798 2.18 0 4.033.526 5.557 1.579 1.525 1.052 2.287 2.735 2.287 5.048h-2.648c-.141-1.114-.443-1.969-.906-2.563-.859-1.086-2.317-1.629-4.375-1.629-1.662 0-2.856.35-3.583 1.048-.727.699-1.09 1.51-1.09 2.436 0 1.02.425 1.765 1.274 2.237.557.302 1.817.68 3.78 1.133l2.918.665c1.406.321 2.492.76 3.257 1.317 1.321.973 1.982 2.384 1.982 4.234 0 2.304-.838 3.95-2.513 4.942-1.676.991-3.623 1.487-5.841 1.487-2.587 0-4.612-.66-6.075-1.983-1.463-1.312-2.18-3.091-2.152-5.338h2.648zm17.671-12.687h2.578v4.233h2.421v2.082h-2.421v9.898c0 .529.179.883.538 1.062.198.104.528.156.99.156a7.609 7.609 0 0 0 .892-.042l.001 2.01a5.69 5.69 0 0 1-.913.184 8.683 8.683 0 0 1-1.027.057c-1.19 0-1.997-.305-2.421-.914-.425-.608-.638-1.4-.638-2.371v-10.04h-2.053v-2.082h2.053v-4.233zm13.566 17.756c1.69 0 2.848-.64 3.476-1.918.628-1.28.942-2.703.942-4.27 0-1.416-.227-2.567-.68-3.455-.717-1.397-1.954-2.095-3.71-2.095-1.557 0-2.69.594-3.398 1.784-.708 1.19-1.062 2.624-1.062 4.305 0 1.614.354 2.959 1.062 4.035.708 1.076 1.831 1.614 3.37 1.614zm.099-13.961c1.954 0 3.606.65 4.956 1.954 1.35 1.302 2.025 3.219 2.025 5.749 0 2.445-.595 4.465-1.784 6.06-1.19 1.596-3.035 2.393-5.537 2.393-2.086 0-3.743-.705-4.97-2.117-1.227-1.411-1.84-3.306-1.84-5.685 0-2.549.646-4.578 1.939-6.089 1.293-1.51 3.03-2.265 5.211-2.265zm10.082.438h2.421v2.62c.199-.51.685-1.13 1.459-1.862.774-.732 1.666-1.097 2.676-1.097.047 0 .128.004.24.014.114.01.308.028.581.056v2.69a3.807 3.807 0 0 0-.417-.056 5.682 5.682 0 0 0-.418-.014c-1.284 0-2.27.413-2.96 1.24a4.325 4.325 0 0 0-1.033 2.852V51h-2.549V35.834zm15.902-.34c1.076 0 2.12.253 3.13.758 1.01.505 1.779 1.159 2.307 1.961.51.765.85 1.657 1.02 2.677.15.698.226 1.812.226 3.341h-11.115c.047 1.54.41 2.773 1.09 3.703.68.93 1.732 1.395 3.158 1.395 1.33 0 2.393-.439 3.186-1.317.453-.51.774-1.1.963-1.77h2.506c-.066.557-.286 1.178-.658 1.862-.373.685-.791 1.244-1.254 1.678-.774.755-1.732 1.265-2.874 1.53a8.732 8.732 0 0 1-2.082.226c-1.888 0-3.488-.687-4.8-2.06-1.312-1.374-1.968-3.297-1.968-5.77 0-2.436.66-4.414 1.982-5.934 1.322-1.52 3.05-2.28 5.183-2.28zm4.064 6.713c-.104-1.105-.345-1.988-.722-2.648-.699-1.228-1.865-1.841-3.498-1.841-1.17 0-2.152.422-2.945 1.267-.793.845-1.213 1.919-1.26 3.222h8.425z" fill="#FFF"/><path d="M48.16 47.705c-1.756 2.554-3.57 5.093-6.436 5.147-2.82.053-3.725-1.664-6.944-1.664-3.221 0-4.23 1.61-6.892 1.717-2.767.103-4.87-2.76-6.64-5.303-3.614-5.2-6.373-14.703-2.663-21.116 1.838-3.185 5.13-5.2 8.697-5.253 2.717-.05 5.284 1.824 6.943 1.824 1.663 0 4.778-2.25 8.053-1.92 1.371.057 5.219.55 7.69 4.15-.195.128-4.593 2.675-4.54 7.981.055 6.34 5.58 8.446 5.644 8.475-.05.149-.883 3.008-2.913 5.962zm-12.033-33.53c1.516-1.77 4.08-3.087 6.194-3.175.27 2.458-.723 4.92-2.19 6.693-1.47 1.77-3.876 3.15-6.237 2.966-.321-2.405.869-4.913 2.233-6.485z" fill="#FFF" fill-rule="nonzero"/></g></svg>