<svg width="213" height="64" xmlns="http://www.w3.org/2000/svg"><g fill="none" fill-rule="evenodd"><rect fill="#000" width="213" height="64" rx="10"/><text font-family="Helvetica" font-size="15" letter-spacing="1.2" fill="#FFF"><tspan x="68.928" y="23">Coming soon on</tspan></text><path d="M107.628 39.626c-3.422 0-6.248 2.53-6.248 6 0 3.44 2.797 6 6.248 6 3.45 0 6.247-2.531 6.247-6 0-3.47-2.796-6-6.247-6zm0 9.611c-1.875 0-3.51-1.507-3.51-3.64 0-2.161 1.635-3.64 3.51-3.64 1.874 0 3.51 1.479 3.51 3.64s-1.636 3.64-3.51 3.64zm-13.626-9.611c-3.451 0-6.248 2.53-6.248 6 0 3.44 2.797 6 6.248 6s6.248-2.531 6.248-6c0-3.47-2.797-6-6.248-6zm0 9.611c-1.874 0-3.51-1.507-3.51-3.64 0-2.161 1.636-3.64 3.51-3.64 1.874 0 3.51 1.479 3.51 3.64s-1.606 3.64-3.51 3.64zm-16.184-7.763v2.53h6.307c-.179 1.423-.685 2.475-1.428 3.186-.923.881-2.35 1.848-4.88 1.848-3.897 0-6.931-3.014-6.931-6.768 0-3.753 3.034-6.74 6.932-6.74 2.112 0 3.63.797 4.76 1.82l1.844-1.79C82.845 34.108 80.763 33 77.818 33 72.463 33 68 37.18 68 42.299c0 5.118 4.463 9.298 9.818 9.298 2.885 0 5.027-.91 6.753-2.616 1.755-1.678 2.29-4.038 2.29-5.943 0-.597-.059-1.138-.148-1.593l-8.895.029zm66.254 1.962c-.506-1.336-2.112-3.81-5.325-3.81s-5.861 2.417-5.861 6c0 3.355 2.648 6 6.158 6 2.856 0 4.492-1.678 5.177-2.645l-2.113-1.365c-.714.995-1.666 1.65-3.064 1.65-1.398 0-2.38-.598-3.005-1.82l8.33-3.328-.297-.682zm-8.479 1.99c-.06-2.303 1.874-3.497 3.243-3.497 1.1 0 1.993.512 2.32 1.28l-5.563 2.218zm-6.753 5.801h2.737V33.626h-2.737v17.601zm-4.493-10.265h-.089c-.625-.71-1.785-1.336-3.272-1.336-3.124 0-5.95 2.644-5.95 6 0 3.355 2.856 5.971 5.95 5.971 1.487 0 2.647-.625 3.272-1.365h.09v.853c0 2.304-1.28 3.526-3.333 3.526-1.666 0-2.707-1.166-3.123-2.132l-2.38.966c.684 1.593 2.499 3.555 5.503 3.555 3.213 0 5.92-1.82 5.92-6.227V39.995h-2.588v.967zm-3.123 8.275c-1.875 0-3.451-1.507-3.451-3.611 0-2.105 1.576-3.64 3.45-3.64 1.845 0 3.333 1.535 3.333 3.64 0 2.104-1.488 3.611-3.332 3.611zm35.64-15.611h-6.544v17.601h2.737v-6.654h3.808c3.034 0 6.01-2.104 6.01-5.46 0-3.355-2.976-5.487-6.01-5.487zm.09 8.502h-3.897V36.1h3.897c2.023 0 3.213 1.62 3.213 3.014a3.17 3.17 0 0 1-3.213 3.014zm16.868-2.53c-1.963 0-4.016.824-4.849 2.7l2.41.967c.535-.966 1.487-1.28 2.499-1.28 1.428 0 2.856.825 2.886 2.276v.17c-.506-.284-1.547-.682-2.856-.682-2.618 0-5.266 1.393-5.266 3.952 0 2.36 2.142 3.868 4.522 3.868 1.844 0 2.856-.796 3.48-1.735h.09V51.2h2.648v-6.74c-.03-3.127-2.44-4.862-5.564-4.862zm-.327 9.639c-.892 0-2.142-.427-2.142-1.479 0-1.365 1.547-1.876 2.886-1.876 1.19 0 1.755.255 2.499.597-.208 1.592-1.666 2.758-3.243 2.758zm15.47-9.27l-3.123 7.62h-.09l-3.242-7.62h-2.946l4.85 10.663-2.767 5.943h2.856L192 39.967h-3.035zm-24.573 11.26h2.737V33.626h-2.737v17.601zM16 49.264V14.74c0-1.204.698-2.246 1.712-2.74l19.97 19.996L17.704 52A3.046 3.046 0 0 1 16 49.264zM44.018 38.34L22.182 50.963 39.403 33.72l4.615 4.62zm6.787-8.758A3.043 3.043 0 0 1 52 32.002c0 .972-.454 1.837-1.162 2.395L46.2 37.078l-5.076-5.082 5.072-5.079 4.61 2.665zm-28.61-16.54l21.82 12.614-4.612 4.617-17.209-17.231z" fill="#FFF" fill-rule="nonzero"/></g></svg>